# xmcd
# Track frame offsets:
# 150
# 13902
# 33957
# 44742
# 56775
# 69107
# 83597
# 93962
# 108182
# 118115
#
# Disc length: 1758 seconds
# Revision: 0
# Processed by: cddbd v1.4PL0 Copyright (c) Steve Scherf et al.
# Submitted via: VisiTrax 2.9.5.181 - For more info visit www.synapsa.com
#
DISCID=7b06dc0a
DTITLE=George Strait - Merry Christmas Strait To You
DYEAR=1986
DGENRE=Country Christmas
TTITLE0=White Christmas
TTITLE1=There's A New Kid In Town
TTITLE2=Winter Wonderland
TTITLE3=Merry Christmas Strait To You
TTITLE4=Away In A Manger
TTITLE5=For Christ's Sake, It's Christmas
TTITLE6=Frosty The Snowman
TTITLE7=When It's Christmas Time In Texas
TTITLE8=Santa Claus Is Coming To Town
TTITLE9=What A Merry Christmas This Could Be
EXTD=
EXTT0=
EXTT1=
EXTT2=
EXTT3=
EXTT4=
EXTT5=
EXTT6=
EXTT7=
EXTT8=
EXTT9=
PLAYORDER=
